<?xml version="1.0" standalone="no"?>
<!DOCTYPE svg PUBLIC "-//W3C//DTD SVG 20010904//EN"
 "http://www.w3.org/TR/2001/REC-SVG-20010904/DTD/svg10.dtd">
<svg version="1.0" xmlns="http://www.w3.org/2000/svg"
 width="256.000000pt" height="256.000000pt" viewBox="0 0 256.000000 256.000000"
 preserveAspectRatio="xMidYMid meet">

<g transform="translate(0.000000,256.000000) scale(0.100000,-0.100000)"
fill="#000000" stroke="none">
<path d="M21 2394 c-28 -35 -26 -69 4 -99 24 -25 27 -25 189 -25 91 0 167 -3
170 -8 4 -7 346 -1269 346 -1278 0 -2 -9 -4 -20 -4 -34 0 -93 -29 -129 -63
-74 -70 -93 -184 -46 -277 44 -86 128 -130 250 -130 l62 0 -14 -52 c-26 -103
24 -223 119 -282 67 -41 163 -47 236 -16 102 44 170 157 159 264 -3 28 -8 59
-12 69 -7 16 8 17 225 17 l232 0 -6 -26 c-16 -64 -17 -85 -6 -138 14 -70 58
-130 125 -171 43 -27 57 -30 130 -30 73 0 87 3 130 30 104 64 152 175 124 285
-13 52 -13 55 9 77 28 28 29 72 2 101 l-21 22 -768 0 c-793 0 -820 1 -841 40
-18 33 -11 79 15 105 l24 25 756 0 c659 0 760 2 793 15 44 19 79 50 98 87 17
32 204 837 204 876 0 40 -41 103 -80 123 -32 17 -63 19 -376 19 -187 0 -598 3
-911 7 l-571 6 -43 161 c-56 215 -70 242 -146 280 -26 13 -66 16 -212 16
l-180 0 -20 -26z m983 -606 c3 -13 12 -79 21 -148 8 -69 18 -135 20 -147 l5
-23 -147 0 -148 0 -43 163 c-24 89 -43 165 -42 170 0 4 74 7 165 7 163 0 165
0 169 -22z m389 15 l97 -6 0 -164 0 -163 -145 0 -144 0 -6 33 c-12 72 -35 252
-35 279 0 28 0 28 68 28 37 0 111 -3 165 -7z m551 -165 c-13 -90 -23 -164 -23
-165 -1 -2 -64 -3 -141 -3 l-140 0 0 165 0 165 163 0 163 0 -22 -162z m460
135 c-3 -16 -20 -89 -38 -163 l-32 -135 -130 -3 -131 -3 19 143 c10 79 21 153
23 166 5 22 8 22 150 22 l145 0 -6 -27z m-1315 -611 c11 -87 21 -164 21 -170
0 -18 -204 -16 -219 1 -9 12 -91 298 -91 319 0 4 60 8 134 8 l133 0 22 -158z
m399 -14 l2 -168 -113 0 -114 0 -17 138 c-10 75 -21 152 -23 170 l-6 33 134
-3 134 -3 3 -167z m412 160 c0 -6 -10 -83 -21 -170 l-22 -158 -108 0 -109 0 0
170 0 170 130 0 c92 0 130 -3 130 -12z m397 0 c-2 -7 -19 -78 -37 -158 -18
-80 -37 -151 -43 -157 -11 -14 -207 -19 -207 -5 0 17 41 308 45 320 3 9 38 12
126 12 93 0 120 -3 116 -12z m-1149 -814 c26 -18 52 -65 52 -94 0 -81 -104
-138 -170 -93 -67 45 -73 132 -13 180 33 27 98 31 131 7z m955 -4 c59 -47 56
-143 -7 -181 -91 -55 -199 26 -166 126 16 48 53 75 105 75 27 0 51 -7 68 -20z"/>
</g>
</svg>
